<?xml version="1.0" standalone="no"?>
<!DOCTYPE svg PUBLIC "-//W3C//DTD SVG 20010904//EN"
 "http://www.w3.org/TR/2001/REC-SVG-20010904/DTD/svg10.dtd">
<svg version="1.0" xmlns="http://www.w3.org/2000/svg"
 width="1920.000000pt" height="1920.000000pt" viewBox="0 0 1920.000000 1920.000000"
 preserveAspectRatio="xMidYMid meet">

<g transform="translate(0.000000,1920.000000) scale(0.100000,-0.100000)"
fill="#000000" stroke="none">
<path d="M9204 19190 c-1737 -83 -3335 -594 -4794 -1533 -935 -601 -1818
-1428 -2496 -2337 -490 -656 -912 -1408 -1219 -2170 -606 -1505 -821 -3166
-619 -4780 229 -1838 991 -3564 2198 -4980 355 -417 844 -893 1267 -1236 1374
-1113 3016 -1823 4773 -2064 1217 -166 2506 -94 3685 206 2179 555 4067 1832
5384 3643 1364 1875 1992 4186 1771 6521 -200 2123 -1140 4153 -2657 5738
-1424 1489 -3263 2490 -5237 2851 -321 59 -640 100 -990 126 -245 18 -827 27
-1066 15z m807 -1270 c1038 -52 2042 -299 2983 -735 2544 -1178 4362 -3593
4790 -6365 59 -380 85 -691 93 -1120 23 -1226 -217 -2389 -727 -3519 -1039
-2304 -3108 -4046 -5535 -4659 -1002 -254 -2009 -313 -3050 -182 -1460 185
-2870 777 -4050 1699 -496 388 -1004 891 -1393 1380 -912 1146 -1511 2523
-1717 3945 -103 715 -112 1478 -24 2201 180 1495 785 2947 1727 4150 299 381
743 851 1087 1151 1432 1246 3160 1954 5010 2053 223 12 576 12 806 1z"/>
<path d="M5624 14641 c-390 -69 -639 -275 -747 -616 -55 -175 -52 88 -52
-4530 0 -4109 1 -4283 18 -4358 31 -130 87 -229 186 -327 97 -96 193 -151 336
-192 109 -31 362 -33 470 -4 164 44 303 125 411 238 83 88 136 185 164 299 20
83 20 113 20 3242 0 1804 4 3157 9 3157 5 0 13 -6 18 -12 6 -7 544 -1103 1197
-2435 652 -1331 1202 -2450 1222 -2484 91 -162 217 -295 342 -362 221 -118
569 -114 782 10 84 49 214 178 278 275 28 43 98 176 157 295 59 120 600 1224
1202 2453 602 1229 1100 2241 1105 2248 6 6 14 12 19 12 5 0 9 -1353 9 -3157
0 -3507 -5 -3227 69 -3378 97 -197 277 -333 527 -401 107 -29 361 -27 469 4
144 41 239 96 335 192 89 88 128 150 172 270 l23 65 3 4325 c2 4756 7 4402
-57 4587 -82 238 -260 425 -491 516 -259 102 -635 117 -895 36 -297 -92 -482
-290 -722 -774 -60 -121 -665 -1378 -1344 -2793 -844 -1760 -1238 -2571 -1248
-2570 -8 2 -598 1208 -1320 2698 -719 1482 -1331 2742 -1362 2800 -269 513
-544 692 -1059 689 -91 0 -183 -7 -246 -18z"/>
</g>
</svg>
